<svg width="15" height="14" viewBox="0 0 15 14" fill="none" xmlns="http://www.w3.org/2000/svg">
<path fill-rule="evenodd" clip-rule="evenodd" d="M11.0324 5.3041C11.0324 5.67869 11.3324 5.97835 11.7074 5.97835C12.0824 5.97835 12.3899 5.67869 12.3899 5.3041C12.3899 4.92952 12.0824 4.62236 11.7074 4.62236C11.3324 4.62236 11.0324 4.92952 11.0324 5.3041ZM9.57738 9.82908C9.04488 10.361 8.30988 10.6906 7.49988 10.6906C6.71238 10.6906 5.97738 10.3835 5.41488 9.82908C4.85988 9.2672 4.55238 8.53302 4.55238 7.74639C4.54488 6.96726 4.85238 6.23307 5.40738 5.6712C5.96988 5.10932 6.71238 4.80216 7.49988 4.80216C8.28738 4.80216 9.02988 5.10932 9.58488 5.6637C10.1399 6.22558 10.4474 6.96726 10.4474 7.74639C10.4399 8.56298 10.1099 9.29717 9.57738 9.82908ZM7.49985 5.92591C7.01235 5.92591 6.55485 6.1132 6.20235 6.46531C5.85735 6.80993 5.66985 7.26692 5.67735 7.7389V7.74639C5.67735 8.23335 5.86485 8.69034 6.20985 9.03496C6.55485 9.37957 7.01235 9.56687 7.49985 9.56687C8.50485 9.56687 9.31485 8.75027 9.32235 7.74639C9.32235 7.25943 9.13485 6.80244 8.78985 6.45782C8.44485 6.1132 7.98735 5.92591 7.49985 5.92591Z" fill="#200E32"/>
<path opacity="0.4" d="M11.58 2.4273L11.505 2.26249C11.3025 1.83546 11.07 1.34101 10.9275 1.05633C10.5825 0.382075 9.99 0.00749168 9.2625 0H5.73C5.0025 0.00749168 4.4175 0.382075 4.0725 1.05633C3.9225 1.35599 3.6675 1.89539 3.4575 2.3374L3.4125 2.4273C3.39 2.48724 3.33 2.5172 3.27 2.5172C1.4625 2.5172 0 3.98557 0 5.78357V10.2336C0 12.0316 1.4625 13.5 3.27 13.5H11.73C13.53 13.5 15 12.0316 15 10.2336V5.78357C15 3.98557 13.53 2.5172 11.73 2.5172C11.6625 2.5172 11.61 2.47974 11.58 2.4273Z" fill="#200E32"/>
</svg>
