<svg width="78" height="78" viewBox="0 0 78 78" fill="none" xmlns="http://www.w3.org/2000/svg">
<path d="M39 77.5C60.263 77.5 77.5 60.263 77.5 39C77.5 17.737 60.263 0.5 39 0.5C17.737 0.5 0.5 17.737 0.5 39C0.5 60.263 17.737 77.5 39 77.5Z" fill="#07BD4E"/>
<path d="M39 77.5C60.263 77.5 77.5 60.263 77.5 39C77.5 17.737 60.263 0.5 39 0.5C17.737 0.5 0.5 17.737 0.5 39C0.5 60.263 17.737 77.5 39 77.5Z" stroke="#07BD4E"/>
<path d="M39 77.5C60.263 77.5 77.5 60.263 77.5 39C77.5 17.737 60.263 0.5 39 0.5C17.737 0.5 0.5 17.737 0.5 39C0.5 60.263 17.737 77.5 39 77.5Z" stroke="white"/>
</svg>
