<svg width="20" height="16" viewBox="0 0 20 16" fill="none" xmlns="http://www.w3.org/2000/svg">
<path opacity="0.7" fill-rule="evenodd" clip-rule="evenodd" d="M2 0H18C18.5299 0.00158273 19.0377 0.212794 19.4125 0.587524C19.7872 0.962255 19.9984 1.47005 20 2V14C19.9984 14.5299 19.7872 15.0377 19.4125 15.4125C19.0377 15.7872 18.5299 15.9984 18 16H2C1.47005 15.9984 0.962255 15.7872 0.587524 15.4125C0.212794 15.0377 0.00158273 14.5299 0 14L0.0100098 2C0.0100032 1.4713 0.219311 0.964081 0.592224 0.589294C0.965137 0.214508 1.4713 0.00264352 2 0ZM10.53 8.66998L17.6 4.25C17.6945 4.19091 17.7765 4.11379 17.8412 4.02301C17.906 3.93223 17.9522 3.82959 17.9773 3.72095C18.0024 3.6123 18.0058 3.49974 17.9874 3.38977C17.969 3.2798 17.9291 3.17457 17.87 3.08002C17.8109 2.98547 17.7338 2.90348 17.643 2.83875C17.5522 2.77401 17.4496 2.72777 17.3409 2.7027C17.2323 2.67763 17.1197 2.67421 17.0098 2.69263C16.8998 2.71104 16.7946 2.7509 16.7 2.81L10 7L3.29999 2.81C3.10903 2.69065 2.87848 2.65206 2.65906 2.7027C2.43964 2.75333 2.24935 2.88906 2.13 3.08002C2.01066 3.27097 1.97207 3.50153 2.02271 3.72095C2.07334 3.94036 2.20907 4.13065 2.40002 4.25L9.46997 8.66998C9.62934 8.76809 9.81285 8.82007 10 8.82007C10.1872 8.82007 10.3707 8.76809 10.53 8.66998Z" fill="#0000AF"/>
</svg>
