<svg width="15" height="14" viewBox="0 0 15 14" fill="none" xmlns="http://www.w3.org/2000/svg">
<path opacity="0.4" d="M11.58 2.4273L11.505 2.26249C11.3025 1.83546 11.07 1.34101 10.9275 1.05633C10.5825 0.382075 9.99 0.00749168 9.2625 0H5.73C5.0025 0.00749168 4.4175 0.382075 4.0725 1.05633C3.9225 1.35599 3.6675 1.89539 3.4575 2.3374L3.4125 2.4273C3.39 2.48724 3.33 2.5172 3.27 2.5172C1.4625 2.5172 0 3.98557 0 5.78357V10.2336C0 12.0316 1.4625 13.5 3.27 13.5H11.73C13.53 13.5 15 12.0316 15 10.2336V5.78357C15 3.98557 13.53 2.5172 11.73 2.5172C11.6625 2.5172 11.61 2.47974 11.58 2.4273Z" fill="#200E32"/>
</svg>
