<svg width="18" height="18" viewBox="0 0 18 18" fill="none" xmlns="http://www.w3.org/2000/svg">
<path d="M1.09382e-06 2.5C-0.000199427 1.96561 0.0271701 1.43157 0.0820005 0.900006C0.106874 0.652485 0.223114 0.423121 0.408022 0.256704C0.59293 0.0902869 0.833229 -0.00123408 1.08199 1.25702e-05H5.53896C5.79104 -0.000775178 6.03412 0.093669 6.21954 0.264442C6.40496 0.435214 6.51904 0.669714 6.53896 0.921006C6.66472 2.52621 7.12853 4.08668 7.89995 5.49998C8.01872 5.7156 8.05379 5.96745 7.99843 6.20731C7.94308 6.44718 7.8012 6.6582 7.59995 6.79997L6.36196 7.68496C7.3008 9.33304 8.66586 10.6981 10.3139 11.6369L11.1999 10.3999C11.3415 10.2005 11.5512 10.0598 11.7895 10.0045C12.0277 9.9492 12.278 9.98317 12.4929 10.0999C13.9075 10.8731 15.4697 11.3379 17.0769 11.4639C17.3282 11.4838 17.5627 11.5979 17.7335 11.7834C17.9042 11.9688 17.9987 12.2118 17.9979 12.4639V16.9249C17.9991 17.1737 17.9076 17.414 17.7412 17.5989C17.5748 17.7838 17.3454 17.9 17.0979 17.9249C16.5669 17.9773 16.0335 18.0023 15.4999 17.9999C11.3891 17.9999 7.44661 16.3669 4.53982 13.4601C1.63302 10.5533 1.09382e-06 6.61082 1.09382e-06 2.5Z" fill="#0000AF"/>
</svg>
