<svg width="19" height="18" viewBox="0 0 19 18" fill="none" xmlns="http://www.w3.org/2000/svg">
<path d="M18.5401 7.3361L10.3457 0.311707C10.0981 0.105366 9.79828 0 9.49849 0C9.19869 0 8.8989 0.105366 8.65559 0.311707L0.461213 7.3361C0.0441086 7.69171 -0.107961 8.27561 0.0788674 8.79366C0.261351 9.29415 0.721904 9.6322 1.24329 9.65854V16.6785C1.24329 17.4073 1.82549 18 2.54674 18H8.19503H9.064H10.8019H16.4502C17.1715 18 17.7537 17.4029 17.7537 16.6785V9.65854C18.2751 9.63659 18.7356 9.29415 18.9181 8.79805C19.1093 8.27561 18.9572 7.6961 18.5401 7.3361ZM9.064 16.6829H8.19503V12.7317H10.8019V16.6829H9.064ZM16.4502 8.34146V16.6829H12.1054V12.7317C12.1054 12.0029 11.5232 11.4146 10.8019 11.4146H8.19503C7.47379 11.4146 6.89158 12.0029 6.89158 12.7317V16.6829H2.54674V8.34146H1.30411L9.49849 1.31707L17.6929 8.34146H16.4502Z" fill="#0000AF"/>
</svg>
